<svg xmlns="http://www.w3.org/2000/svg" width="48" height="48">
<defs>
<defs
     id="defs2385" />
  <g
     id="layer1">
    <path
       d="M 11,3 L 11,33 L 37,33 L 37,14.71875 L 26.6875,3 L 11,3 z M 23.8125,10.75 C 28.814999,10.75 32.875,14.81 32.875,19.8125 C 32.874999,24.815 28.815,28.875 23.8125,28.875 C 18.809999,28.875 14.75,24.815 14.75,19.8125 C 14.75,14.81 18.81,10.75 23.8125,10.75 z M 22.1875,13.09375 L 22.1875,18.28125 L 22.65625,22.0625 L 25,22.0625 L 25.4375,18.28125 L 25.4375,13.09375 L 22.1875,13.09375 z M 22.1875,23.40625 L 22.1875,26.625 L 25.4375,26.625 L 25.4375,23.40625 L 22.1875,23.40625 z M 4,35 L 4,45 L 44,45 L 44,35 L 4,35 z M 36.34375,40.21875 L 41.03125,40.21875 L 41.03125,42.40625 L 36.34375,42.40625 L 36.34375,40.21875 z"
       id="path-main"
        />
  </g>
</defs>
<acyl-settings>
<linearGradient
     id="linearGradient4321">
    <stop
       style="stop-color:#C4C4C4;stop-opacity:1.0;"
       offset="0.0"
       id="stop1" />
  </linearGradient>
<linearGradient
     inkscape:collect="always"
     xlink:href="#linearGradient4321"
     id="acyl_gradient"
     x1="50.0%"
     y1="0.0%"
     x2="50.0%"
     y2="100.0%" />
<filter id="filter1111" x="-50%" y="-50%" width="200%" height="200%">
<feGaussianBlur in="SourceAlpha" stdDeviation="1" result="blur"/>
<feOffset in="blur" dy="1"/>
<feComposite in2="SourceAlpha" operator="arithmetic"
k2="-1" k3="1" result="hl"/>
<feFlood flood-color="white" flood-opacity="0.2"/>
<feComposite in2="hl" operator="in" result="hl"/>
<feMorphology in="SourceAlpha" radius="0" operator="dilate"/>
<feOffset dy="2"/>
<feGaussianBlur stdDeviation="0 1" result="drop"/>
<feFlood flood-color="black" flood-opacity="1"/>
<feComposite in2="drop" operator="in" result="drop"/>
<feMerge>
<feMergeNode in="drop"/>
<feMergeNode in="SourceGraphic"/>
<feMergeNode in="hl"/>
</feMerge>
</filter>
<use id="1" style="fill:url(#acyl_gradient);filter:url(#filter1111)" xlink:href="#path-main" />
</acyl-settings>
</svg>
