<svg xmlns="http://www.w3.org/2000/svg" width="48" height="48">
<defs>
<defs
     id="defs3306">
  </defs>
  <path
     d="M 2 4 L 2 11 L 16 11 L 16 4 L 2 4 z M 20 4 L 20 11 L 36 11 L 36 4 L 20 4 z M 40 4 L 40 11 L 46 11 L 46 4 L 40 4 z M 2 15 L 2 22 L 8 22 L 8 15 L 2 15 z M 12 15 L 12 22 L 28 22 L 28 15 L 12 15 z M 32 15 L 32 22 L 46 22 L 46 15 L 32 15 z M 2 26 L 2 33 L 16 33 L 16 26 L 2 26 z M 20 26 L 20 33 L 36 33 L 36 26 L 20 26 z M 40 26 L 40 33 L 46 33 L 46 26 L 40 26 z M 2 37 L 2 44 L 8 44 L 8 37 L 2 37 z M 12 37 L 12 44 L 28 44 L 28 37 L 12 37 z M 32 37 L 32 44 L 46 44 L 46 37 L 32 37 z "
     id="path-main" />
</defs>
<acyl-settings>
<linearGradient
     id="linearGradient4321">
    <stop
       style="stop-color:#C4C4C4;stop-opacity:1.0;"
       offset="0.0"
       id="stop1" />
  </linearGradient>
<linearGradient
     inkscape:collect="always"
     xlink:href="#linearGradient4321"
     id="acyl_gradient"
     x1="50.0%"
     y1="0.0%"
     x2="50.0%"
     y2="100.0%" />
<filter id="filter1111" x="-50%" y="-50%" width="200%" height="200%">
<feGaussianBlur in="SourceAlpha" stdDeviation="1" result="blur"/>
<feOffset in="blur" dy="1"/>
<feComposite in2="SourceAlpha" operator="arithmetic"
k2="-1" k3="1" result="hl"/>
<feFlood flood-color="white" flood-opacity="0.2"/>
<feComposite in2="hl" operator="in" result="hl"/>
<feMorphology in="SourceAlpha" radius="0" operator="dilate"/>
<feOffset dy="2"/>
<feGaussianBlur stdDeviation="0 1" result="drop"/>
<feFlood flood-color="black" flood-opacity="1"/>
<feComposite in2="drop" operator="in" result="drop"/>
<feMerge>
<feMergeNode in="drop"/>
<feMergeNode in="SourceGraphic"/>
<feMergeNode in="hl"/>
</feMerge>
</filter>
<use id="1" style="fill:url(#acyl_gradient);filter:url(#filter1111)" xlink:href="#path-main" />
</acyl-settings>
</svg>
