<svg xmlns="http://www.w3.org/2000/svg" width="48" height="48">
<defs>
  <path
     d="m 27.666667,6.2717537 c -4.129782,0 -7.667743,2.5972712 -9.548611,6.3402783 -1.059104,-0.880993 -2.411567,-1.451389 -3.895834,-1.451389 -3.373333,0 -6.1111106,2.737777 -6.1111109,6.111111 0,0.757599 0.12958,1.469216 0.3819445,2.138889 C 4.6564812,21.124883 2,25.006054 2,29.493976 c 0,6.094 4.906,11 11,11 l 22,0 c 6.094,0 11,-4.906 11,-11 0,-4.826978 -3.10134,-8.900303 -7.409722,-10.388889 0.0096,-0.208819 0.07639,-0.399664 0.07639,-0.611111 0,-6.746667 -4.928,-12.2222223 -11,-12.2222223 z"
     id="path-main"
      />
</defs>
<acyl-settings>
<linearGradient
     id="linearGradient4321">
    <stop
       style="stop-color:#C4C4C4;stop-opacity:1.0;"
       offset="0.0"
       id="stop1" />
  </linearGradient>
<linearGradient
     inkscape:collect="always"
     xlink:href="#linearGradient4321"
     id="acyl_gradient"
     x1="50.0%"
     y1="0.0%"
     x2="50.0%"
     y2="100.0%" />
<filter id="filter1111" x="-50%" y="-50%" width="200%" height="200%">
<feGaussianBlur in="SourceAlpha" stdDeviation="1" result="blur"/>
<feOffset in="blur" dy="1"/>
<feComposite in2="SourceAlpha" operator="arithmetic"
k2="-1" k3="1" result="hl"/>
<feFlood flood-color="white" flood-opacity="0.2"/>
<feComposite in2="hl" operator="in" result="hl"/>
<feMorphology in="SourceAlpha" radius="0" operator="dilate"/>
<feOffset dy="2"/>
<feGaussianBlur stdDeviation="0 1" result="drop"/>
<feFlood flood-color="black" flood-opacity="1"/>
<feComposite in2="drop" operator="in" result="drop"/>
<feMerge>
<feMergeNode in="drop"/>
<feMergeNode in="SourceGraphic"/>
<feMergeNode in="hl"/>
</feMerge>
</filter>
<use id="1" style="fill:url(#acyl_gradient);filter:url(#filter1111)" xlink:href="#path-main" />
</acyl-settings>
</svg>
