<svg xmlns="http://www.w3.org/2000/svg" width="48" height="48">
<defs>
<defs
     id="defs4" />
  <g
     id="layer1">
    <path
       d="M 19,8.34375 L 19,9.4375 L 19,16.9375 L 4.5,16.9375 L 4,16.9375 L 4,17.4375 L 4,34.5 L 4,35 L 4.5,35 L 19,35 L 19,42.375 L 19,43.46875 L 19.84375,42.75 L 38.84375,26.3125 L 39,26.1875 L 39,42.5 L 39,43 L 39.5,43 L 43.5,43 L 44,43 L 44,42.5 L 44,9.5 L 44,9 L 43.5,9 L 39.5,9 L 39,9 L 39,9.5 L 39,25.6875 L 38.84375,25.5625 L 19.84375,9.0625 L 19,8.34375 z"
       id="path-main"
        />
  </g>
</defs>
<acyl-settings>
<linearGradient
     id="linearGradient4321">
    <stop
       style="stop-color:#C4C4C4;stop-opacity:1.0;"
       offset="0.0"
       id="stop1" />
  </linearGradient>
<linearGradient
     inkscape:collect="always"
     xlink:href="#linearGradient4321"
     id="acyl_gradient"
     x1="50.0%"
     y1="0.0%"
     x2="50.0%"
     y2="100.0%" />
<filter id="filter1111" x="-50%" y="-50%" width="200%" height="200%">
<feGaussianBlur in="SourceAlpha" stdDeviation="1" result="blur"/>
<feOffset in="blur" dy="1"/>
<feComposite in2="SourceAlpha" operator="arithmetic"
k2="-1" k3="1" result="hl"/>
<feFlood flood-color="white" flood-opacity="0.2"/>
<feComposite in2="hl" operator="in" result="hl"/>
<feMorphology in="SourceAlpha" radius="0" operator="dilate"/>
<feOffset dy="2"/>
<feGaussianBlur stdDeviation="0 1" result="drop"/>
<feFlood flood-color="black" flood-opacity="1"/>
<feComposite in2="drop" operator="in" result="drop"/>
<feMerge>
<feMergeNode in="drop"/>
<feMergeNode in="SourceGraphic"/>
<feMergeNode in="hl"/>
</feMerge>
</filter>
<use id="1" style="fill:url(#acyl_gradient);filter:url(#filter1111)" xlink:href="#path-main" />
</acyl-settings>
</svg>
