<svg xmlns="http://www.w3.org/2000/svg" width="48" height="48">
<defs>
<defs
     id="defs2385">
  </defs>
  <path
     
     id="path-main"
   d="M 12.9044,8.9049173 13.053578,20.977152 2.2059767,27.397154 2.3683659,39.780915 13.605701,45.940207 24.096046,39.38985 35.430814,45.940207 45.921159,39.38985 45.953643,27.331976 34.781263,20.749029 34.813736,8.6911566 23.804295,2.1816728 12.9044,8.9049173 z M 23.836223,3.4443524 33.709489,9.3103447 24.161002,14.752682 13.995435,9.3429335 23.836223,3.4443524 z M 33.950046,21.306908 44.891648,27.758784 35.300904,33.393502 24.128524,27.331976 13.443313,33.393502 3.3102235,27.983754 13.93048,21.628928 l 10.201623,5.674927 9.817943,-5.996947 z"
/>
</defs>
<acyl-settings>
<linearGradient
     id="linearGradient4321">
    <stop
       style="stop-color:#C4C4C4;stop-opacity:1.0;"
       offset="0.0"
       id="stop1" />
  </linearGradient>
<linearGradient
     inkscape:collect="always"
     xlink:href="#linearGradient4321"
     id="acyl_gradient"
     x1="50.0%"
     y1="0.0%"
     x2="50.0%"
     y2="100.0%" />
<filter id="filter1111" x="-50%" y="-50%" width="200%" height="200%">
<feGaussianBlur in="SourceAlpha" stdDeviation="1" result="blur"/>
<feOffset in="blur" dy="1"/>
<feComposite in2="SourceAlpha" operator="arithmetic"
k2="-1" k3="1" result="hl"/>
<feFlood flood-color="white" flood-opacity="0.2"/>
<feComposite in2="hl" operator="in" result="hl"/>
<feMorphology in="SourceAlpha" radius="0" operator="dilate"/>
<feOffset dy="2"/>
<feGaussianBlur stdDeviation="0 1" result="drop"/>
<feFlood flood-color="black" flood-opacity="1"/>
<feComposite in2="drop" operator="in" result="drop"/>
<feMerge>
<feMergeNode in="drop"/>
<feMergeNode in="SourceGraphic"/>
<feMergeNode in="hl"/>
</feMerge>
</filter>
<use id="1" style="fill:url(#acyl_gradient);filter:url(#filter1111)" xlink:href="#path-main" />
</acyl-settings>
</svg>
