<svg xmlns="http://www.w3.org/2000/svg" width="48" height="48">
<defs>
<defs
     id="defs4">
  </defs>
  <path
     id="path-main"
     d="m 26.461072,2.0000009 c -7.908669,0 -14.365363,6.4690897 -14.365363,14.3777571 0,4.583183 2.177636,8.669988 5.540394,11.303892 l -7.002959,14.414941 c -0.6537314,1.351958 -0.08771,2.977893 1.264251,3.631624 1.351958,0.65373 2.977892,0.08771 3.631623,-1.264251 2.310063,-4.767538 4.617321,-9.536451 6.928592,-14.30339 1.274138,0.372371 2.612214,0.582547 4.003462,0.582547 7.908667,1e-6 14.377757,-6.456695 14.377757,-14.365363 0,-7.9086682 -6.469089,-14.3777571 -14.377757,-14.3777571 z m 0,4.5240357 c 5.462221,4e-7 9.853721,4.3914994 9.853721,9.8537214 -1e-6,5.462222 -4.391499,9.841327 -9.853721,9.841327 -5.462223,1e-6 -9.841327,-4.379104 -9.841327,-9.841327 10e-7,-5.462222 4.379106,-9.8537214 9.841327,-9.8537214 z" />
</defs>
<acyl-settings>
<linearGradient
     id="linearGradient4321">
    <stop
       style="stop-color:#C4C4C4;stop-opacity:1.0;"
       offset="0.0"
       id="stop1" />
  </linearGradient>
<linearGradient
     inkscape:collect="always"
     xlink:href="#linearGradient4321"
     id="acyl_gradient"
     x1="50.0%"
     y1="0.0%"
     x2="50.0%"
     y2="100.0%" />
<filter id="filter1111" x="-50%" y="-50%" width="200%" height="200%">
<feGaussianBlur in="SourceAlpha" stdDeviation="1" result="blur"/>
<feOffset in="blur" dy="1"/>
<feComposite in2="SourceAlpha" operator="arithmetic"
k2="-1" k3="1" result="hl"/>
<feFlood flood-color="white" flood-opacity="0.2"/>
<feComposite in2="hl" operator="in" result="hl"/>
<feMorphology in="SourceAlpha" radius="0" operator="dilate"/>
<feOffset dy="2"/>
<feGaussianBlur stdDeviation="0 1" result="drop"/>
<feFlood flood-color="black" flood-opacity="1"/>
<feComposite in2="drop" operator="in" result="drop"/>
<feMerge>
<feMergeNode in="drop"/>
<feMergeNode in="SourceGraphic"/>
<feMergeNode in="hl"/>
</feMerge>
</filter>
<use id="1" style="fill:url(#acyl_gradient);filter:url(#filter1111)" xlink:href="#path-main" />
</acyl-settings>
</svg>
