<svg xmlns="http://www.w3.org/2000/svg" width="48" height="48">
<defs>
<defs
     id="defs4">
  </defs>
  <path
     id="path-main"
     d="m 37.124036,2 -2.053155,7.709818 -18.23269,0 -1.968761,7.347515 30.537994,0 -1.503886,5.612578 -15.392892,15.392892 c 0,0 7.599099,1.935967 14.530095,-1.614056 0,2.113109 0,6.930997 0,6.930997 0,0 -6.254801,2.535731 -9.635775,2.451207 C 30.02399,45.746426 23.262043,43.886891 19.204873,46 18.106056,43.971416 16.144006,40.698427 16.144006,40.698427 l 16.96786,-16.967859 -19.06298,0 -3.634547,17.705116 -8.114339,0 L 10.498863,2 37.124036,2 z" />
</defs>
<acyl-settings>
<linearGradient
     id="linearGradient4321">
    <stop
       style="stop-color:#C4C4C4;stop-opacity:1.0;"
       offset="0.0"
       id="stop1" />
  </linearGradient>
<linearGradient
     inkscape:collect="always"
     xlink:href="#linearGradient4321"
     id="acyl_gradient"
     x1="50.0%"
     y1="0.0%"
     x2="50.0%"
     y2="100.0%" />
<filter id="filter1111" x="-50%" y="-50%" width="200%" height="200%">
<feGaussianBlur in="SourceAlpha" stdDeviation="1" result="blur"/>
<feOffset in="blur" dy="1"/>
<feComposite in2="SourceAlpha" operator="arithmetic"
k2="-1" k3="1" result="hl"/>
<feFlood flood-color="white" flood-opacity="0.2"/>
<feComposite in2="hl" operator="in" result="hl"/>
<feMorphology in="SourceAlpha" radius="0" operator="dilate"/>
<feOffset dy="2"/>
<feGaussianBlur stdDeviation="0 1" result="drop"/>
<feFlood flood-color="black" flood-opacity="1"/>
<feComposite in2="drop" operator="in" result="drop"/>
<feMerge>
<feMergeNode in="drop"/>
<feMergeNode in="SourceGraphic"/>
<feMergeNode in="hl"/>
</feMerge>
</filter>
<use id="1" style="fill:url(#acyl_gradient);filter:url(#filter1111)" xlink:href="#path-main" />
</acyl-settings>
</svg>
