<svg xmlns="http://www.w3.org/2000/svg" width="48" height="48">
<defs>
<defs
     id="defs2162">
  </defs>
  <path
     id="path-main"
   d="M 23.5 2.78125 L 23.5 8.4375 L 35.96875 8.4375 L 22.96875 21.96875 L 22.96875 27.5 L 45.0625 27.5 L 45.0625 21.84375 L 32.03125 21.84375 L 45.0625 8.3125 L 45.0625 2.78125 L 23.5 2.78125 z M 13.1875 26.34375 L 13.1875 30.3125 L 22.1875 30.3125 L 12.78125 39.8125 L 12.78125 43.65625 L 28.71875 43.65625 L 28.71875 39.71875 L 19.34375 39.71875 L 28.71875 30.21875 L 28.71875 28.875 L 21.125 28.875 L 21.125 26.34375 L 13.1875 26.34375 z M 3.15625 36.28125 L 3.15625 38.6875 L 7 38.6875 L 2.84375 43.21875 L 2.84375 45.53125 L 11.5 45.53125 L 11.5 43.09375 L 6.84375 43.09375 L 11.21875 38.34375 L 11.21875 36.28125 L 3.15625 36.28125 z "
/>
</defs>
<acyl-settings>
<linearGradient
     id="linearGradient4321">
    <stop
       style="stop-color:#C4C4C4;stop-opacity:1.0;"
       offset="0.0"
       id="stop1" />
  </linearGradient>
<linearGradient
     inkscape:collect="always"
     xlink:href="#linearGradient4321"
     id="acyl_gradient"
     x1="50.0%"
     y1="0.0%"
     x2="50.0%"
     y2="100.0%" />
<filter id="filter1111" x="-50%" y="-50%" width="200%" height="200%">
<feGaussianBlur in="SourceAlpha" stdDeviation="1" result="blur"/>
<feOffset in="blur" dy="1"/>
<feComposite in2="SourceAlpha" operator="arithmetic"
k2="-1" k3="1" result="hl"/>
<feFlood flood-color="white" flood-opacity="0.2"/>
<feComposite in2="hl" operator="in" result="hl"/>
<feMorphology in="SourceAlpha" radius="0" operator="dilate"/>
<feOffset dy="2"/>
<feGaussianBlur stdDeviation="0 1" result="drop"/>
<feFlood flood-color="black" flood-opacity="1"/>
<feComposite in2="drop" operator="in" result="drop"/>
<feMerge>
<feMergeNode in="drop"/>
<feMergeNode in="SourceGraphic"/>
<feMergeNode in="hl"/>
</feMerge>
</filter>
<use id="1" style="fill:url(#acyl_gradient);filter:url(#filter1111)" xlink:href="#path-main" />
</acyl-settings>
</svg>
