<svg xmlns="http://www.w3.org/2000/svg" width="48" height="48">
<defs>
  <path
     d="M 9 2 C 7.3316193 2 6 3.3484075 6 5.03125 L 6 42.96875 C 6 44.651592 7.3316193 46 9 46 L 39 46 C 40.66838 46 42 44.651592 42 42.96875 L 42 19.40625 L 24.75 2 L 9 2 z M 29.5 2 L 42 14.5625 L 42 5.03125 C 42 3.3484075 40.66838 2 39 2 L 29.5 2 z M 21.96875 17.75 L 35.90625 17.75 L 35.90625 27.8125 L 21.96875 27.8125 L 21.96875 17.75 z M 12.03125 17.8125 L 20.03125 17.8125 L 20.03125 19.8125 L 12.03125 19.8125 L 12.03125 17.8125 z M 12.03125 21.78125 L 20.03125 21.78125 L 20.03125 23.78125 L 12.03125 23.78125 L 12.03125 21.78125 z M 12.03125 25.75 L 20.03125 25.75 L 20.03125 27.75 L 12.03125 27.75 L 12.03125 25.75 z M 12.03125 29.71875 L 35.90625 29.71875 L 35.90625 31.71875 L 12.03125 31.71875 L 12.03125 29.71875 z M 12.03125 33.8125 L 35.90625 33.8125 L 35.90625 35.8125 L 12.03125 35.8125 L 12.03125 33.8125 z M 12.03125 37.78125 L 30.15625 37.78125 L 30.15625 39.78125 L 12.03125 39.78125 L 12.03125 37.78125 z "
     id="path-main" />
</defs>
<acyl-settings>
<linearGradient
     id="linearGradient4321">
    <stop
       style="stop-color:#C4C4C4;stop-opacity:1.0;"
       offset="0.0"
       id="stop1" />
  </linearGradient>
<linearGradient
     inkscape:collect="always"
     xlink:href="#linearGradient4321"
     id="acyl_gradient"
     x1="50.0%"
     y1="0.0%"
     x2="50.0%"
     y2="100.0%" />
<filter id="filter1111" x="-50%" y="-50%" width="200%" height="200%">
<feGaussianBlur in="SourceAlpha" stdDeviation="1" result="blur"/>
<feOffset in="blur" dy="1"/>
<feComposite in2="SourceAlpha" operator="arithmetic"
k2="-1" k3="1" result="hl"/>
<feFlood flood-color="white" flood-opacity="0.2"/>
<feComposite in2="hl" operator="in" result="hl"/>
<feMorphology in="SourceAlpha" radius="0" operator="dilate"/>
<feOffset dy="2"/>
<feGaussianBlur stdDeviation="0 1" result="drop"/>
<feFlood flood-color="black" flood-opacity="1"/>
<feComposite in2="drop" operator="in" result="drop"/>
<feMerge>
<feMergeNode in="drop"/>
<feMergeNode in="SourceGraphic"/>
<feMergeNode in="hl"/>
</feMerge>
</filter>
<use id="1" style="fill:url(#acyl_gradient);filter:url(#filter1111)" xlink:href="#path-main" />
</acyl-settings>
</svg>
