<svg xmlns="http://www.w3.org/2000/svg" width="48" height="48">
<defs>
<defs
     id="defs4">
  </defs>
  <path
     id="path-main"
     d="M 3.6549468,5.9228618 C 2.7367802,5.9228618 2,6.6596419 2,7.5778087 L 2,36.203592 c 0,0.918167 0.7367802,1.654948 1.6549468,1.654947 l 13.5633692,0 0,3.837558 -5.120742,0 0,1.019351 25.016081,0 0,-1.019351 -4.976833,0 0,-3.837558 12.208231,0 C 45.263219,37.858539 46,37.121758 46,36.203592 L 46,7.5778087 C 46,6.6596419 45.263219,5.9228618 44.345053,5.9228618 l -40.6901062,0 z" />
</defs>
<acyl-settings>
<linearGradient
     id="linearGradient4321">
    <stop
       style="stop-color:#C4C4C4;stop-opacity:1.0;"
       offset="0.0"
       id="stop1" />
  </linearGradient>
<linearGradient
     inkscape:collect="always"
     xlink:href="#linearGradient4321"
     id="acyl_gradient"
     x1="50.0%"
     y1="0.0%"
     x2="50.0%"
     y2="100.0%" />
<filter id="filter1111" x="-50%" y="-50%" width="200%" height="200%">
<feGaussianBlur in="SourceAlpha" stdDeviation="1" result="blur"/>
<feOffset in="blur" dy="1"/>
<feComposite in2="SourceAlpha" operator="arithmetic"
k2="-1" k3="1" result="hl"/>
<feFlood flood-color="white" flood-opacity="0.2"/>
<feComposite in2="hl" operator="in" result="hl"/>
<feMorphology in="SourceAlpha" radius="0" operator="dilate"/>
<feOffset dy="2"/>
<feGaussianBlur stdDeviation="0 1" result="drop"/>
<feFlood flood-color="black" flood-opacity="1"/>
<feComposite in2="drop" operator="in" result="drop"/>
<feMerge>
<feMergeNode in="drop"/>
<feMergeNode in="SourceGraphic"/>
<feMergeNode in="hl"/>
</feMerge>
</filter>
<use id="1" style="fill:url(#acyl_gradient);filter:url(#filter1111)" xlink:href="#path-main" />
</acyl-settings>
</svg>
