<svg xmlns="http://www.w3.org/2000/svg" width="48" height="48">
<defs>
<defs
     id="defs4">
  </defs>
  <path
     id="path-main"
     d="m 35.83953,3.2133072 -0.229615,0.2583171 -7.979126,9.2420087 -23.8225698,0 17.1637308,17.163732 9.643836,-9.672538 0,3.32942 0,0.287018 0,0.0287 -1.5212,1.492499 10.849315,10.849315 0,-12.341814 0.861057,0 0.287019,0 0,-0.31572 0,-8.49576 4.276581,0 0.631442,0 L 45.598174,14.550554 36.040444,3.4716243 35.83953,3.2133072 z m 0,0.9184606 8.868885,10.3039792 -3.903457,0 -0.287019,0 0,0.287019 0,8.524462 -9.328115,0 0,-8.524462 0,-0.287019 -0.287019,0 -3.989563,0 L 35.83953,4.1317678 z M 2,14.521853 2,36.191781 12.849315,25.342466 2,14.521853 z M 14.657534,27.150685 3.8082192,38 38.135682,38 27.286367,27.150685 20.97195,33.465101 14.657534,27.150685 z" />
</defs>
<acyl-settings>
<linearGradient
     id="linearGradient4321">
    <stop
       style="stop-color:#C4C4C4;stop-opacity:1.0;"
       offset="0.0"
       id="stop1" />
  </linearGradient>
<linearGradient
     inkscape:collect="always"
     xlink:href="#linearGradient4321"
     id="acyl_gradient"
     x1="50.0%"
     y1="0.0%"
     x2="50.0%"
     y2="100.0%" />
<filter id="filter1111" x="-50%" y="-50%" width="200%" height="200%">
<feGaussianBlur in="SourceAlpha" stdDeviation="1" result="blur"/>
<feOffset in="blur" dy="1"/>
<feComposite in2="SourceAlpha" operator="arithmetic"
k2="-1" k3="1" result="hl"/>
<feFlood flood-color="white" flood-opacity="0.2"/>
<feComposite in2="hl" operator="in" result="hl"/>
<feMorphology in="SourceAlpha" radius="0" operator="dilate"/>
<feOffset dy="2"/>
<feGaussianBlur stdDeviation="0 1" result="drop"/>
<feFlood flood-color="black" flood-opacity="1"/>
<feComposite in2="drop" operator="in" result="drop"/>
<feMerge>
<feMergeNode in="drop"/>
<feMergeNode in="SourceGraphic"/>
<feMergeNode in="hl"/>
</feMerge>
</filter>
<use id="1" style="fill:url(#acyl_gradient);filter:url(#filter1111)" xlink:href="#path-main" />
</acyl-settings>
</svg>
