<svg xmlns="http://www.w3.org/2000/svg" width="48" height="48">
<defs>
<defs
     id="defs3334">
  </defs>
  <path
     d="M 46.1,24.000003 C 46.1,36.144 36.244001,46 24.1,46 11.956,46 2.1,36.144 2.1,24.000003 c 0,-12.143998 9.856,-21.9999975 22,-21.9999975 12.144001,0 22,9.8559995 22,21.9999975 z M 33.374512,24 c 0,5.119529 -4.15498,9.27451 -9.274509,9.27451 -5.119529,0 -9.27451,-4.154981 -9.27451,-9.27451 0,-5.119533 4.154981,-9.274512 9.27451,-9.274512 5.119529,0 9.274509,4.154979 9.274509,9.274512 z m -1.294118,-1e-6 c 0,4.405177 -3.575216,7.980392 -7.980392,7.980392 -4.405177,0 -7.980393,-3.575215 -7.980393,-7.980392 0,-4.405177 3.575216,-7.980392 7.980393,-7.980392 4.405176,0 7.980392,3.575215 7.980392,7.980392 z m -1.941179,0 c 0,3.333647 -2.705568,6.039215 -6.039215,6.039215 -3.333647,0 -6.039216,-2.705568 -6.039216,-6.039215 0,-3.333647 2.705569,-6.039216 6.039216,-6.039216 3.333647,0 6.039215,2.705569 6.039215,6.039216 z"
     id="path-main"
      />
</defs>
<acyl-settings>
<linearGradient
     id="linearGradient4321">
    <stop
       style="stop-color:#C4C4C4;stop-opacity:1.0;"
       offset="0.0"
       id="stop1" />
  </linearGradient>
<linearGradient
     inkscape:collect="always"
     xlink:href="#linearGradient4321"
     id="acyl_gradient"
     x1="50.0%"
     y1="0.0%"
     x2="50.0%"
     y2="100.0%" />
<filter id="filter1111" x="-50%" y="-50%" width="200%" height="200%">
<feGaussianBlur in="SourceAlpha" stdDeviation="1" result="blur"/>
<feOffset in="blur" dy="1"/>
<feComposite in2="SourceAlpha" operator="arithmetic"
k2="-1" k3="1" result="hl"/>
<feFlood flood-color="white" flood-opacity="0.2"/>
<feComposite in2="hl" operator="in" result="hl"/>
<feMorphology in="SourceAlpha" radius="0" operator="dilate"/>
<feOffset dy="2"/>
<feGaussianBlur stdDeviation="0 1" result="drop"/>
<feFlood flood-color="black" flood-opacity="1"/>
<feComposite in2="drop" operator="in" result="drop"/>
<feMerge>
<feMergeNode in="drop"/>
<feMergeNode in="SourceGraphic"/>
<feMergeNode in="hl"/>
</feMerge>
</filter>
<use id="1" style="fill:url(#acyl_gradient);filter:url(#filter1111)" xlink:href="#path-main" />
</acyl-settings>
</svg>
